HIERARCHY
ROOT Hips
{
  OFFSET 5.84602e-005 68.8428 3.50346
  CHANNELS 6 Xposition Yposition Zposition Zrotation Xrotation Yrotation
  JOINT Spine
  {
    OFFSET 0 8.597 -4.6522
    CHANNELS 3 Zrotation Xrotation Yrotation
    JOINT Spine1
    {
      OFFSET 0 7.8454 0.4098
      CHANNELS 3 Zrotation Xrotation Yrotation
      JOINT Spine2
      {
        OFFSET 0 9.7078 -2.1609
        CHANNELS 3 Zrotation Xrotation Yrotation
        JOINT Neck
        {
          OFFSET 0 21.8761 -0.4549
          CHANNELS 3 Zrotation Xrotation Yrotation
          JOINT Head
          {
            OFFSET 0 12.3537 3.3602
            CHANNELS 3 Zrotation Xrotation Yrotation
            End Site
            {
              OFFSET 0.0001 18.9506 0.5657
            }
          }
        }
        JOINT LeftShoulder
        {
          OFFSET 2.2086 21.1115 7.2329
          CHANNELS 3 Zrotation Xrotation Yrotation
          JOINT LeftArm
          {
            OFFSET 13.1193 3.0282 -4.8998
            CHANNELS 3 Zrotation Xrotation Yrotation
            JOINT LeftForeArm
            {
              OFFSET 27.4081 -0.0973053 -0.2375
              CHANNELS 3 Zrotation Xrotation Yrotation
              JOINT LeftHand
              {
                OFFSET 22.8641 0.0662994 -0.1369
                CHANNELS 3 Zrotation Xrotation Yrotation
                JOINT LeftHandIndex1
                {
                  OFFSET 8.8614 0.775009 2.4612
                  CHANNELS 3 Zrotation Xrotation Yrotation
                  JOINT LeftHandIndex2
                  {
                    OFFSET 3.3146 -0.808304 0.5841
                    CHANNELS 3 Zrotation Xrotation Yrotation
                    JOINT LeftHandIndex3
                    {
                      OFFSET 2.2628 -0.552002 0.3989
                      CHANNELS 3 Zrotation Xrotation Yrotation
                      End Site
                      {
                        OFFSET 1.6102 -0.4807 0.2612
                      }
                    }
                  }
                }
                JOINT LeftHandMiddle1
                {
                  OFFSET 8.9937 0.895004 0.2143
                  CHANNELS 3 Zrotation Xrotation Yrotation
                  JOINT LeftHandMiddle2
                  {
                    OFFSET 4.0984 0.0113983 -0.0242
                    CHANNELS 3 Zrotation Xrotation Yrotation
                    JOINT LeftHandMiddle3
                    {
                      OFFSET 2.2716 0.00689697 -0.0138001
                      CHANNELS 3 Zrotation Xrotation Yrotation
                      End Site
                      {
                        OFFSET 2.0404 -0.1441 0.0027
                      }
                    }
                  }
                }
                JOINT LeftHandRing1
                {
                  OFFSET 8.5234 0.597198 -2.0164
                  CHANNELS 3 Zrotation Xrotation Yrotation
                  JOINT LeftHandRing2
                  {
                    OFFSET 3.7188 -0.188293 -0.2328
                    CHANNELS 3 Zrotation Xrotation Yrotation
                    JOINT LeftHandRing3
                    {
                      OFFSET 2.1191 -0.106598 -0.1332
                      CHANNELS 3 Zrotation Xrotation Yrotation
                      End Site
                      {
                        OFFSET 1.8737 -0.2304 -0.0886
                      }
                    }
                  }
                }
                JOINT LeftHandPinky1
                {
                  OFFSET 7.9094 -0.601089 -3.4825
                  CHANNELS 3 Zrotation Xrotation Yrotation
                  JOINT LeftHandPinky2
                  {
                    OFFSET 2.2874 -0.477005 -0.6314
                    CHANNELS 3 Zrotation Xrotation Yrotation
                    JOINT LeftHandPinky3
                    {
                      OFFSET 1.6774 -0.349396 -0.4633
                      CHANNELS 3 Zrotation Xrotation Yrotation
                      End Site
                      {
                        OFFSET 1.4888 -0.4091 -0.3416
                      }
                    }
                  }
                }
                JOINT LeftHandThumb1
                {
                  OFFSET 1.833 -1.3875 1.3896
                  CHANNELS 3 Zrotation Xrotation Yrotation
                  JOINT LeftHandThumb2
                  {
                    OFFSET 3.4129 -1.121 2.5732
                    CHANNELS 3 Zrotation Xrotation Yrotation
                    JOINT LeftHandThumb3
                    {
                      OFFSET 2.2474 -0.804199 1.6192
                      CHANNELS 3 Zrotation Xrotation Yrotation
                      End Site
                      {
                        OFFSET 1.6527 -0.5689 1.1317
                      }
                    }
                  }
                }
              }
            }
          }
        }
        JOINT RightShoulder
        {
          OFFSET -2.2086 21.1115 7.2329
          CHANNELS 3 Zrotation Xrotation Yrotation
          JOINT RightArm
          {
            OFFSET -13.1216 3.0287 -4.9007
            CHANNELS 3 Zrotation Xrotation Yrotation
            JOINT RightForeArm
            {
              OFFSET -27.4081 -0.0973053 -0.2375
              CHANNELS 3 Zrotation Xrotation Yrotation
              JOINT RightHand
              {
                OFFSET -22.8641 0.0664063 -0.1369
                CHANNELS 3 Zrotation Xrotation Yrotation
                JOINT RightHandIndex1
                {
                  OFFSET -8.8614 0.774994 2.4612
                  CHANNELS 3 Zrotation Xrotation Yrotation
                  JOINT RightHandIndex2
                  {
                    OFFSET -3.3146 -0.808304 0.5841
                    CHANNELS 3 Zrotation Xrotation Yrotation
                    JOINT RightHandIndex3
                    {
                      OFFSET -2.2628 -0.552002 0.3989
                      CHANNELS 3 Zrotation Xrotation Yrotation
                      End Site
                      {
                        OFFSET -1.6102 -0.4807 0.2612
                      }
                    }
                  }
                }
                JOINT RightHandMiddle1
                {
                  OFFSET -8.9937 0.894989 0.2143
                  CHANNELS 3 Zrotation Xrotation Yrotation
                  JOINT RightHandMiddle2
                  {
                    OFFSET -4.0984 0.0113983 -0.0242
                    CHANNELS 3 Zrotation Xrotation Yrotation
                    JOINT RightHandMiddle3
                    {
                      OFFSET -2.2716 0.00691223 -0.0138001
                      CHANNELS 3 Zrotation Xrotation Yrotation
                      End Site
                      {
                        OFFSET -2.0404 -0.1441 0.0027
                      }
                    }
                  }
                }
                JOINT RightHandRing1
                {
                  OFFSET -8.5234 0.597198 -2.0164
                  CHANNELS 3 Zrotation Xrotation Yrotation
                  JOINT RightHandRing2
                  {
                    OFFSET -3.7188 -0.188309 -0.2328
                    CHANNELS 3 Zrotation Xrotation Yrotation
                    JOINT RightHandRing3
                    {
                      OFFSET -2.1191 -0.106598 -0.1332
                      CHANNELS 3 Zrotation Xrotation Yrotation
                      End Site
                      {
                        OFFSET -1.8737 -0.2304 -0.0886
                      }
                    }
                  }
                }
                JOINT RightHandPinky1
                {
                  OFFSET -7.9094 -0.601105 -3.4825
                  CHANNELS 3 Zrotation Xrotation Yrotation
                  JOINT RightHandPinky2
                  {
                    OFFSET -2.2874 -0.477005 -0.6314
                    CHANNELS 3 Zrotation Xrotation Yrotation
                    JOINT RightHandPinky3
                    {
                      OFFSET -1.6774 -0.349396 -0.4633
                      CHANNELS 3 Zrotation Xrotation Yrotation
                      End Site
                      {
                        OFFSET -1.4888 -0.4091 -0.3416
                      }
                    }
                  }
                }
                JOINT RightHandThumb1
                {
                  OFFSET -1.833 -1.38751 1.3896
                  CHANNELS 3 Zrotation Xrotation Yrotation
                  JOINT RightHandThumb2
                  {
                    OFFSET -3.41299 -1.12099 2.5732
                    CHANNELS 3 Zrotation Xrotation Yrotation
                    JOINT RightHandThumb3
                    {
                      OFFSET -2.24741 -0.804108 1.6192
                      CHANNELS 3 Zrotation Xrotation Yrotation
                      End Site
                      {
                        OFFSET -1.6527 -0.5689 1.1317
                      }
                    }
                  }
                }
              }
            }
          }
        }
      }
    }
  }
  JOINT RightUpLeg
  {
    OFFSET -9.1966 3.8861 -0.7581
    CHANNELS 3 Zrotation Xrotation Yrotation
    JOINT RightLeg
    {
      OFFSET -0.7359 -41.0265 0
      CHANNELS 3 Zrotation Xrotation Yrotation
      JOINT RightFoot
      {
        OFFSET 0 -40.2855 0
        CHANNELS 3 Zrotation Xrotation Yrotation
        JOINT RightToeBase
        {
          OFFSET 0 -5.6122 11.7359
          CHANNELS 3 Zrotation Xrotation Yrotation
          End Site
          {
            OFFSET 0 0 7.8731
          }
        }
      }
    }
  }
  JOINT LeftUpLeg
  {
    OFFSET 9.1965 3.8864 -0.7581
    CHANNELS 3 Zrotation Xrotation Yrotation
    JOINT LeftLeg
    {
      OFFSET 0.7359 -41.0268 0
      CHANNELS 3 Zrotation Xrotation Yrotation
      JOINT LeftFoot
      {
        OFFSET 0 -40.2855 0
        CHANNELS 3 Zrotation Xrotation Yrotation
        JOINT LeftToeBase
        {
          OFFSET 0 -5.6122 11.7359
          CHANNELS 3 Zrotation Xrotation Yrotation
          End Site
          {
            OFFSET 0 0 7.8731
          }
        }
      }
    }
  }
}
MOTION
Frames:	4
Frame Time:	0.0333333
5.84602e-005 68.8428 3.50346 0 0 -0 0 0 -0 0 0 -0 0 0 -0 0 0 -0 0 0 -0 0 0 -0 0 0 -0 0 0 -0 0 0 -0 0 0 -0 0 0 -0 0 0 -0 0 0 -0 -0.0146107 -8.87603e-005 -2.63497e-007 2.99804e-018 -2.42657e-020 -1.42182e-022 0 0 -0 -0.0187562 -0.001176 5.858e-005 5.06224e-018 3.88251e-019 1.21329e-020 0 0 -0 -0.012269 -0.00324817 0.000675346 -1.74678e-018 3.88251e-019 -0 0 0 -0 0 0 -0 0 0 -0 0 0 -0 0 0 -0 0 0 -0 0 0 -0 0 0 -0 0 0 -0 0 0 -0 0 0 -0 0.0149955 -9.10982e-005 2.64101e-007 -9.69331e-018 1.21329e-020 -4.7394e-023 0 0 -0 0.0189956 -0.00119102 -5.96516e-005 -5.41541e-019 0 2.42657e-020 0 0 -0 0.0122698 -0.00324857 -0.000673756 -2.00796e-019 0 -1.94126e-019 0 0 -0 0 0 -0 0 0 -0 3.39842 1.33031 -0.0637918 -5.65207e-008 0.834868 -0.000436188 -3.39935 -2.16518 -0.0642563 -8.89002e-024 -1.18485e-023 -1.48106e-024 -3.39844 1.35642 0.0640283 -3.18788e-007 0.782166 -0.000588827 3.39931 -2.13858 0.0634662 1.1399e-023 0 -0 
-0.0131349 18.6015 -0.156512 -0 -66.6516 -0 -0.0419163 4.4198 -0.083911 -0.0776663 8.83951 -0.165309 -0.0776662 8.83951 -0.165309 2.59638e-006 13.3025 -3.25266e-007 3.07232e-008 6.65559 5.15864e-008 -14.7458 -9.6448 -1.09076 -45.0408 3.28144 16.4928 17.4467 16.4649 -34.8383 -7.94647 17.9494 3.81127 9.74045e-015 -2.98177e-016 6.36111e-015 3.63376e-007 -7.30381e-007 -2.28257e-007 3.2849e-006 7.23122e-007 -6.54035e-007 9.74045e-015 -2.98177e-016 6.36111e-015 -0.0146122 -8.77993e-005 4.4346e-007 3.28479e-006 7.23205e-007 -6.53945e-007 9.74045e-015 -2.98177e-016 6.36111e-015 -0.0187444 -0.00117726 5.20167e-005 3.28476e-006 7.23219e-007 -6.5395e-007 9.74045e-015 -2.98177e-016 6.36111e-015 -0.0122284 -0.00323664 0.000670284 3.2848e-006 7.2315e-007 -6.54046e-007 9.74045e-015 -2.98177e-016 6.36111e-015 3.63376e-007 -7.30381e-007 -2.28257e-007 3.2849e-006 7.23122e-007 -6.54035e-007 14.49 -9.54815 0.746455 45.4726 3.33359 -16.4492 -17.5513 16.4618 35.277 7.88548 18.2301 -4.23824 -1.5249e-006 -3.51842e-007 3.55713e-007 -1.42824e-006 -2.93148e-006 9.18649e-007 -2.1207e-006 3.14341e-007 5.34327e-007 -1.5249e-006 -3.51842e-007 3.55713e-007 0.01499 -9.14728e-005 1.84004e-006 -1.52382e-006 -3.51802e-007 3.55761e-007 -1.5249e-006 -3.51842e-007 3.55713e-007 0.0190105 -0.00119559 -6.27377e-005 -2.12194e-006 3.14506e-007 5.34301e-007 -1.5249e-006 -3.51842e-007 3.55713e-007 0.0122698 -0.00325072 -0.000672561 -2.12149e-006 3.14598e-007 5.34397e-007 -1.5249e-006 -3.51842e-007 3.55713e-007 -1.42824e-006 -2.93148e-006 9.18649e-007 -2.1207e-006 3.14341e-007 5.34327e-007 -6.53066 -26.6407 8.18626 30.9554 14.0908 -42.7247 -9.49414 16.1249 -2.50388 -2.54025e-006 -7.42326e-007 -1.56748e-006 8.72066 -25.9575 -7.52584 -34.6451 2.62224 31.0629 9.61004 16.9667 2.41262 1.73972e-008 -4.56655e-007 -1.35494e-007 
-0.0412367 -3.34944 -4.99391 -180 -83.2737 -180 -0.0526596 6.38032 -0.125117 -0.0920621 12.7608 -0.246608 -0.0920621 12.7607 -0.246608 5.06828e-007 19.4365 1.20426e-007 -1.55014e-007 9.70014 4.15264e-008 -21.4974 -13.8265 -1.45315 -65.9137 4.53632 23.954 31.3207 18.6896 -51.8662 -12.3833 26.0465 5.81317 -7.95139e-016 -4.14963e-015 -3.97569e-016 -7.95139e-016 -8.69683e-016 -7.95139e-016 -1.59028e-015 -7.1811e-015 3.97569e-016 -7.95139e-016 -4.14963e-015 -3.97569e-016 -0.0145858 -8.81626e-005 3.25886e-006 -8.03469e-032 5.7896e-015 7.95139e-016 -7.95139e-016 -4.14963e-015 -3.97569e-016 -0.0187381 -0.00117368 6.13131e-005 -3.50295e-007 -1.48569e-007 -1.63639e-007 -7.95139e-016 -4.14963e-015 -3.97569e-016 -0.012268 -0.00324951 0.000670442 -7.95139e-016 -4.72114e-015 -3.97569e-016 -7.95139e-016 -4.14963e-015 -3.97569e-016 -7.95139e-016 -8.69683e-016 -7.95139e-016 -1.59028e-015 -7.1811e-015 3.97569e-016 21.0803 -13.6885 0.949287 66.5479 4.60961 -23.8919 -31.5176 18.5459 52.4875 12.4067 26.4374 -6.47639 2.20695e-032 -3.18055e-015 3.97569e-016 -8.68988e-032 -3.13086e-015 -1.59028e-015 1.59028e-015 -3.18055e-015 -1.19271e-015 2.20695e-032 -3.18055e-015 3.97569e-016 0.0149866 -9.18825e-005 -1.48558e-006 1.59028e-015 0 -0 2.20695e-032 -3.18055e-015 3.97569e-016 0.019003 -0.00119174 -6.1983e-005 -7.95139e-016 2.48481e-015 7.95139e-016 2.20695e-032 -3.18055e-015 3.97569e-016 0.0122682 -0.00324386 -0.000671888 7.95139e-016 5.46658e-016 7.95139e-016 2.20695e-032 -3.18055e-015 3.97569e-016 -8.68988e-032 -3.13086e-015 -1.59028e-015 1.59028e-015 -3.18055e-015 -1.19271e-015 -7.85421 -39.4879 14.0346 50.8316 13.8586 -62.5253 -11.1491 24.4387 -4.1371 3.18055e-015 3.18055e-015 6.36111e-015 11.8988 -38.6087 -12.4793 -51.6166 3.24863 45.1652 11.7088 25.5858 3.88739 -2.31809e-006 1.65418e-007 -2.40843e-007 
-0.0323958 1.61635 -3.78979 -180 -89.7758 -180 -0.0503946 5.88212 -0.115945 -0.0894621 11.7644 -0.228479 -0.0894618 11.7643 -0.228479 2.06233e-007 18.4025 2.164e-007 -4.08515e-008 9.13363 9.35103e-009 -19.9848 -12.551 -1.03169 -61.2451 4.27564 22.2931 28.0433 18.5997 -48.0781 -11.3406 24.4386 5.25886 -5.96354e-016 4.07509e-015 -3.18055e-015 5.96354e-016 4.07509e-015 -1.59028e-015 7.95139e-016 7.50412e-015 -4.77083e-015 -5.96354e-016 4.07509e-015 -3.18055e-015 -0.0146189 -8.78564e-005 7.23825e-007 1.98785e-016 7.8023e-015 -1.59028e-015 -5.96354e-016 4.07509e-015 -3.18055e-015 -0.0187669 -0.00117714 6.00944e-005 -1.98785e-016 -4.42296e-015 4.77083e-015 -5.96354e-016 4.07509e-015 -3.18055e-015 -0.0122778 -0.00325317 0.000680909 3.97569e-016 9.74045e-015 -4.77083e-015 -5.96354e-016 4.07509e-015 -3.18055e-015 5.96354e-016 4.07509e-015 -1.59028e-015 7.95139e-016 7.50412e-015 -4.77083e-015 19.5912 -12.4236 0.571972 61.8339 4.34442 -22.235 -28.2232 18.4966 48.6642 11.3322 24.807 -5.85643 -2.32388e-006 -2.26677e-007 6.15961e-007 -2.32388e-006 -2.26677e-007 6.15961e-007 -2.32388e-006 -2.26677e-007 6.15961e-007 -2.32388e-006 -2.26677e-007 6.15961e-007 0.0150055 -9.01262e-005 -1.61734e-006 -2.32388e-006 -2.26596e-007 6.15993e-007 -2.32388e-006 -2.26677e-007 6.15961e-007 0.0189856 -0.00119214 -6.06009e-005 -2.32387e-006 -2.26576e-007 6.16023e-007 -2.32388e-006 -2.26677e-007 6.15961e-007 0.0122871 -0.00325254 -0.00067582 -2.32386e-006 -2.26625e-007 6.16052e-007 -2.32388e-006 -2.26677e-007 6.15961e-007 -2.32388e-006 -2.26677e-007 6.15961e-007 -2.32388e-006 -2.26677e-007 6.15961e-007 -7.82779 -36.6281 12.5234 46.5701 14.6424 -58.2863 -10.8447 22.5354 -3.73542 -1.11785e-006 3.88022e-006 1.43528e-006 11.4097 -35.801 -11.2149 -47.8213 3.33492 42.0166 11.3263 23.6363 3.52127 -3.1284e-006 -1.36979e-007 1.34993e-006 
